<svg width="28" height="20" viewBox="0 0 28 20" fill="none" xmlns="http://www.w3.org/2000/svg">
<path d="M25.4089 14.9267V13.89V7.66722V1.44441C25.4089 0.874884 24.9417 0.407715 24.3709 0.407715H3.63041C3.0599 0.407715 2.59141 0.872588 2.59141 1.44441V7.66722V13.89V14.9267L0 18.0381C0 18.8954 0.696162 19.5925 1.55439 19.5925H26.4456C27.3038 19.5925 28 18.895 28 18.0381L25.4089 14.9267ZM16.076 19.0761H11.9279C11.7836 19.0761 11.6684 18.961 11.6684 18.8166C11.6684 18.6723 11.7836 18.5571 11.9279 18.5571H16.076C16.2181 18.5571 16.3355 18.6723 16.3355 18.8166C16.3319 18.961 16.2181 19.0761 16.076 19.0761ZM9.72527 18.0394L10.5166 17.0897H17.4838L18.2751 18.0394H9.72527ZM23.9484 13.0928C23.9484 13.5931 23.5409 13.998 23.0442 13.998H4.9558C4.45911 13.998 4.05165 13.5895 4.05165 13.0928V2.24391C4.05165 1.74361 4.45911 1.33877 4.9558 1.33877H23.0442C23.5409 1.33877 23.9484 1.74623 23.9484 2.24391V13.0928Z" fill="white"/>
<path d="M18.3889 10.034C18.1389 9.9261 17.9159 9.77912 17.7138 9.59606C17.5694 9.46582 17.4461 9.31195 17.3463 9.14398C17.2735 9.02292 17.2066 8.89859 17.156 8.77064C17.1055 8.64269 17.075 8.50425 17.0409 8.37138C17.0163 8.27263 16.9999 8.17421 16.994 8.07317C16.9858 7.85238 16.9894 7.6352 17.0409 7.41801C17.0842 7.24086 17.1383 7.07059 17.2181 6.90852C17.4142 6.51517 17.7006 6.21006 18.0786 5.98698C18.1045 5.96697 18.1337 5.95056 18.1665 5.92957C18.1419 5.90496 18.1265 5.88495 18.1091 5.86395C17.906 5.61167 17.6606 5.40498 17.3834 5.2439C17.2318 5.15598 17.0724 5.08184 16.9136 5.01491C16.8198 4.97489 16.7187 4.95028 16.62 4.92929C16.5285 4.90829 16.4297 4.90009 16.3372 4.88828C16.0918 4.85908 15.8487 4.89287 15.6105 4.9388C15.4944 4.9598 15.3851 4.99884 15.2723 5.03492C15.1794 5.06182 15.0892 5.09955 15 5.13105C14.9212 5.15795 14.8415 5.19568 14.7615 5.21667C14.6394 5.25079 14.5138 5.28229 14.3894 5.30722C14.1664 5.35545 13.9456 5.31542 13.7297 5.2626C13.6287 5.238 13.5325 5.20027 13.4338 5.16878C13.3176 5.13105 13.2048 5.09004 13.0873 5.05133C12.9863 5.01852 12.8852 4.9785 12.7809 4.9575C12.6589 4.93158 12.5319 4.91419 12.4063 4.89189C12.1373 4.84956 11.8722 4.89189 11.6104 4.96242C11.4752 4.99752 11.344 5.05756 11.216 5.11399C11.0094 5.20093 10.825 5.32887 10.6537 5.46863C10.4224 5.65071 10.2276 5.87019 10.0596 6.11099C9.94575 6.27076 9.8493 6.43512 9.7873 6.62048C9.73809 6.75794 9.69347 6.8977 9.65476 7.03975C9.62556 7.15261 9.59735 7.26415 9.58193 7.37897C9.56323 7.50594 9.55503 7.63618 9.54912 7.76413C9.54223 7.92029 9.53961 8.07645 9.54453 8.229C9.55043 8.37565 9.56454 8.52262 9.57963 8.66697C9.59603 8.80443 9.61605 8.94156 9.64065 9.08034C9.65935 9.17909 9.68527 9.27521 9.71119 9.37265C9.7476 9.51339 9.7827 9.65577 9.82863 9.7929C9.88145 9.95136 9.94018 10.1088 10.0048 10.2601C10.0917 10.4645 10.182 10.6675 10.2853 10.8647C10.4651 11.2039 10.6751 11.5294 10.9099 11.8368C11.0674 12.0435 11.2328 12.2406 11.4326 12.4096C11.6625 12.609 11.9161 12.7583 12.2239 12.8134C12.4903 12.8594 12.737 12.8039 12.9787 12.7124C13.1008 12.6642 13.2182 12.6113 13.3393 12.5608C13.5414 12.4739 13.755 12.4211 13.9744 12.4001C14.2408 12.3755 14.5003 12.3814 14.7566 12.4575C14.8986 12.4985 15.0384 12.5513 15.1745 12.609C15.3694 12.6888 15.5584 12.7793 15.7709 12.8134C16.0623 12.8594 16.3228 12.7924 16.5727 12.655C16.7971 12.5329 16.9894 12.3686 17.1574 12.176C17.3217 11.9857 17.4756 11.7862 17.6222 11.5819C17.7715 11.3752 17.9136 11.1652 18.0379 10.9444C18.1895 10.6744 18.3197 10.389 18.4595 10.1108C18.4759 10.079 18.4631 10.0567 18.4349 10.0416C18.4171 10.0386 18.4017 10.0386 18.3889 10.034Z" fill="white"/>
<path d="M14.417 4.86702C14.5978 4.8083 14.768 4.72366 14.9301 4.61933C15.1578 4.47006 15.3527 4.28601 15.5137 4.06391C15.6817 3.83853 15.8083 3.58952 15.8917 3.32083C15.9527 3.12366 15.9904 2.92387 15.9763 2.6975C15.9763 2.65289 15.9786 2.58957 15.9763 2.52592C15.974 2.45309 15.9609 2.4403 15.8917 2.45309C15.7424 2.48492 15.5889 2.51051 15.4442 2.56464C15.2762 2.63025 15.1155 2.70899 14.9629 2.80052C14.6096 3.0095 14.336 3.2959 14.1306 3.64956C14.0345 3.81622 13.959 3.98649 13.9039 4.16725C13.8793 4.25288 13.857 4.34441 13.8452 4.43627C13.8252 4.58554 13.8229 4.73907 13.8429 4.89064C13.8475 4.93395 13.8606 4.95396 13.9052 4.95298C14.0801 4.95068 14.2504 4.92017 14.417 4.86702Z" fill="white"/>
</svg>
