<svg width="20" height="24" viewBox="0 0 20 24" fill="none" xmlns="http://www.w3.org/2000/svg">
<path d="M9.99997 13.5714C13.4282 13.5714 16.2073 10.9498 16.2073 7.71588C16.2073 4.48196 13.4282 1.86035 9.99997 1.86035C6.57174 1.86035 3.7926 4.48196 3.7926 7.71588C3.7926 10.9498 6.57174 13.5714 9.99997 13.5714Z" fill="white"/>
<path d="M10 14.0733C6.30629 14.0733 3.30151 11.2215 3.30151 7.71583C3.30151 4.21018 6.30629 1.3584 10 1.3584C13.6937 1.3584 16.6985 4.21018 16.6985 7.71583C16.6985 11.2215 13.6937 14.0733 10 14.0733ZM10 2.3622C6.8479 2.3622 4.28378 4.76436 4.28378 7.71583C4.28378 10.6673 6.8479 13.0695 10 13.0695C13.1521 13.0695 15.7162 10.668 15.7162 7.71583C15.7162 4.76367 13.1521 2.3622 10 2.3622Z" fill="#343434"/>
<path d="M14.7067 6.25195H5.29328C4.46448 6.25195 3.7926 6.93857 3.7926 7.78554V17.4053C3.7926 18.2523 4.46448 18.9389 5.29328 18.9389H14.7067C15.5355 18.9389 16.2073 18.2523 16.2073 17.4053V7.78554C16.2073 6.93857 15.5355 6.25195 14.7067 6.25195Z" fill="white"/>
<path d="M14.7067 19.4408H5.29333C4.76523 19.4402 4.25892 19.2256 3.8855 18.844C3.51208 18.4624 3.30206 17.945 3.30151 17.4053V7.78549C3.30206 7.24582 3.51208 6.7284 3.8855 6.34679C4.25892 5.96518 4.76523 5.75055 5.29333 5.75H14.7067C15.2348 5.75055 15.7411 5.96518 16.1145 6.34679C16.4879 6.7284 16.698 7.24582 16.6985 7.78549V17.4053C16.698 17.945 16.4879 18.4624 16.1145 18.844C15.7411 19.2256 15.2348 19.4402 14.7067 19.4408ZM5.29333 6.7538C5.02569 6.75417 4.76912 6.86299 4.57987 7.05639C4.39062 7.24979 4.28414 7.51199 4.28378 7.78549V17.4053C4.28414 17.6788 4.39062 17.941 4.57987 18.1344C4.76912 18.3278 5.02569 18.4366 5.29333 18.437H14.7067C14.9743 18.4366 15.2309 18.3278 15.4202 18.1344C15.6094 17.941 15.7159 17.6788 15.7162 17.4053V7.78549C15.7159 7.51199 15.6094 7.24979 15.4202 7.05639C15.2309 6.86299 14.9743 6.75417 14.7067 6.7538H5.29333Z" fill="#343434"/>
<path d="M5.93455 0.307329C5.83169 0.36565 5.75569 0.46329 5.7232 0.578821C5.69072 0.694351 5.70442 0.818333 5.76129 0.923554L8.17398 5.37445C8.20223 5.42651 8.24024 5.47236 8.28583 5.5094C8.33143 5.54644 8.38372 5.57393 8.43972 5.59031C8.49572 5.60669 8.55433 5.61163 8.61219 5.60485C8.67006 5.59808 8.72606 5.57971 8.77698 5.55082C8.82789 5.52201 8.87275 5.48324 8.90898 5.4367C8.94522 5.39017 8.97212 5.33679 8.98815 5.27962C9.00418 5.22245 9.00902 5.16261 9.0024 5.10353C8.99577 5.04444 8.97782 4.98727 8.94956 4.93529L6.5355 0.487875C6.50767 0.435674 6.47003 0.389591 6.42476 0.352262C6.37948 0.314933 6.32745 0.287088 6.27164 0.270321C6.21583 0.253553 6.15733 0.248191 6.09949 0.254541C6.04165 0.260892 5.9856 0.278829 5.93455 0.307329Z" fill="white"/>
<path d="M18.1173 7.71582C17.6831 7.71582 17.2667 7.89208 16.9597 8.20583C16.6527 8.51958 16.4802 8.94512 16.4802 9.38883V15.3141C16.4802 15.7578 16.6527 16.1833 16.9597 16.4971C17.2667 16.8108 17.6831 16.9871 18.1173 16.9871C18.5515 16.9871 18.9679 16.8108 19.2749 16.4971C19.582 16.1833 19.7544 15.7578 19.7544 15.3141V9.38883C19.7544 8.94512 19.582 8.51958 19.2749 8.20583C18.9679 7.89208 18.5515 7.71582 18.1173 7.71582Z" fill="white"/>
<path d="M18.1174 17.238C17.6183 17.2375 17.1397 17.0346 16.7868 16.6739C16.4338 16.3132 16.2353 15.8241 16.2347 15.314V9.3888C16.2347 8.87854 16.4331 8.38917 16.7862 8.02836C17.1392 7.66755 17.6181 7.46484 18.1174 7.46484C18.6167 7.46484 19.0956 7.66755 19.4487 8.02836C19.8017 8.38917 20.0001 8.87854 20.0001 9.3888V15.314C19.9995 15.8241 19.801 16.3132 19.4481 16.6739C19.0951 17.0346 18.6166 17.2375 18.1174 17.238ZM18.1174 7.96675C17.7485 7.96712 17.3947 8.11706 17.1338 8.38367C16.873 8.65027 16.7262 9.01176 16.7259 9.3888V15.314C16.7259 15.6912 16.8725 16.0529 17.1334 16.3196C17.3944 16.5863 17.7484 16.7361 18.1174 16.7361C18.4865 16.7361 18.8404 16.5863 19.1014 16.3196C19.3623 16.0529 19.509 15.6912 19.509 15.314V9.3888C19.5086 9.01176 19.3619 8.65027 19.101 8.38367C18.8401 8.11706 18.4864 7.96712 18.1174 7.96675Z" fill="#343434"/>
<path d="M12.3192 14.4775C11.885 14.4775 11.4686 14.6538 11.1616 14.9676C10.8546 15.2813 10.6821 15.7068 10.6821 16.1505V22.0758C10.6821 22.5195 10.8546 22.945 11.1616 23.2588C11.4686 23.5725 11.885 23.7488 12.3192 23.7488C12.7534 23.7488 13.1698 23.5725 13.4768 23.2588C13.7839 22.945 13.9563 22.5195 13.9563 22.0758V16.1505C13.9563 15.7068 13.7839 15.2813 13.4768 14.9676C13.1698 14.6538 12.7534 14.4775 12.3192 14.4775Z" fill="white"/>
<path d="M12.3193 23.9997C11.8202 23.9992 11.3416 23.7963 10.9887 23.4356C10.6357 23.0749 10.4372 22.5859 10.4366 22.0758V16.1505C10.4366 15.6403 10.635 15.1509 10.9881 14.7901C11.3411 14.4293 11.82 14.2266 12.3193 14.2266C12.8186 14.2266 13.2975 14.4293 13.6506 14.7901C14.0036 15.1509 14.202 15.6403 14.202 16.1505V22.0758C14.2014 22.5859 14.0029 23.0749 13.65 23.4356C13.297 23.7963 12.8185 23.9992 12.3193 23.9997ZM12.3193 14.7285C11.9504 14.7288 11.5966 14.8788 11.3357 15.1454C11.0749 15.412 10.9281 15.7735 10.9278 16.1505V22.0758C10.9278 22.4529 11.0744 22.8146 11.3353 23.0813C11.5963 23.348 11.9503 23.4978 12.3193 23.4978C12.6884 23.4978 13.0423 23.348 13.3033 23.0813C13.5642 22.8146 13.7109 22.4529 13.7109 22.0758V16.1505C13.7105 15.7735 13.5638 15.412 13.3029 15.1454C13.042 14.8788 12.6883 14.7288 12.3193 14.7285Z" fill="#343434"/>
<path d="M14.0668 0.307429C14.1697 0.36575 14.2457 0.463391 14.2782 0.578921C14.3107 0.694452 14.297 0.818433 14.2401 0.923654L11.826 5.37455C11.7978 5.42661 11.7598 5.47246 11.7142 5.5095C11.6686 5.54654 11.6163 5.57403 11.5603 5.59041C11.5043 5.60679 11.4457 5.61173 11.3878 5.60495C11.33 5.59818 11.274 5.57981 11.223 5.55092C11.1721 5.52211 11.1273 5.48334 11.091 5.4368C11.0548 5.39027 11.0279 5.33689 11.0119 5.27972C10.9958 5.22255 10.991 5.16271 10.9976 5.10363C11.0042 5.04454 11.0222 4.98737 11.0505 4.93539L13.4645 0.487975C13.4924 0.435592 13.53 0.389347 13.5754 0.351897C13.6208 0.314448 13.673 0.286532 13.729 0.269754C13.7849 0.252977 13.8436 0.247669 13.9016 0.254134C13.9596 0.2606 14.0157 0.278712 14.0668 0.307429Z" fill="white"/>
<path d="M1.88271 7.71631C2.3169 7.71631 2.73331 7.89257 3.04032 8.20632C3.34734 8.52007 3.51982 8.94561 3.51982 9.38932V15.3146C3.51982 15.7583 3.34734 16.1838 3.04032 16.4975C2.73331 16.8113 2.3169 16.9876 1.88271 16.9876C1.44853 16.9876 1.03212 16.8113 0.725103 16.4975C0.418086 16.1838 0.245605 15.7583 0.245605 15.3146V9.38932C0.245605 8.94561 0.418086 8.52007 0.725103 8.20632C1.03212 7.89257 1.44853 7.71631 1.88271 7.71631Z" fill="white"/>
<path d="M1.88267 17.2385C1.38352 17.2379 0.904973 17.0351 0.552021 16.6744C0.199068 16.3137 0.000541672 15.8246 0 15.3145V9.38929C0 8.87903 0.198353 8.38966 0.551422 8.02885C0.904492 7.66803 1.38336 7.46533 1.88267 7.46533C2.38199 7.46533 2.86086 7.66803 3.21393 8.02885C3.567 8.38966 3.76535 8.87903 3.76535 9.38929V15.3145C3.76481 15.8246 3.56628 16.3137 3.21333 16.6744C2.86037 17.0351 2.38182 17.2379 1.88267 17.2385ZM1.88267 7.96724C1.51372 7.9676 1.15999 8.11755 0.899104 8.38415C0.638218 8.65076 0.491493 9.01225 0.491132 9.38929V15.3145C0.491132 15.6917 0.637741 16.0534 0.898705 16.3201C1.15967 16.5868 1.51361 16.7366 1.88267 16.7366C2.25173 16.7366 2.60568 16.5868 2.86664 16.3201C3.12761 16.0534 3.27422 15.6917 3.27422 15.3145V9.38929C3.27385 9.01225 3.12713 8.65076 2.86624 8.38415C2.60536 8.11755 2.25162 7.9676 1.88267 7.96724Z" fill="#343434"/>
<path d="M7.68081 14.478C8.115 14.478 8.5314 14.6543 8.83842 14.968C9.14544 15.2818 9.31792 15.7073 9.31792 16.151V22.0763C9.31792 22.52 9.14544 22.9455 8.83842 23.2593C8.5314 23.573 8.115 23.7493 7.68081 23.7493C7.24662 23.7493 6.83022 23.573 6.5232 23.2593C6.21618 22.9455 6.0437 22.52 6.0437 22.0763V16.151C6.0437 15.7073 6.21618 15.2818 6.5232 14.968C6.83022 14.6543 7.24662 14.478 7.68081 14.478Z" fill="white"/>
<path d="M7.68077 24.0002C7.18162 23.9997 6.70307 23.7968 6.35012 23.4361C5.99716 23.0754 5.79864 22.5863 5.7981 22.0762V16.151C5.7981 15.6407 5.99645 15.1514 6.34952 14.7906C6.70259 14.4298 7.18145 14.2271 7.68077 14.2271C8.18009 14.2271 8.65895 14.4298 9.01202 14.7906C9.36509 15.1514 9.56344 15.6407 9.56344 16.151V22.0762C9.5629 22.5863 9.36438 23.0754 9.01142 23.4361C8.65847 23.7968 8.17992 23.9997 7.68077 24.0002ZM7.68077 14.729C7.31182 14.7293 6.95809 14.8793 6.6972 15.1459C6.43631 15.4125 6.28959 15.774 6.28923 16.151V22.0762C6.28923 22.4534 6.43584 22.8151 6.6968 23.0818C6.95777 23.3485 7.31171 23.4983 7.68077 23.4983C8.04983 23.4983 8.40377 23.3485 8.66474 23.0818C8.9257 22.8151 9.07231 22.4534 9.07231 22.0762V16.151C9.07195 15.774 8.92523 15.4125 8.66434 15.1459C8.40345 14.8793 8.04972 14.7293 7.68077 14.729Z" fill="#343434"/>
<path d="M9.99997 13.5714C13.4282 13.5714 16.2073 10.9498 16.2073 7.71588C16.2073 4.48196 13.4282 1.86035 9.99997 1.86035C6.57174 1.86035 3.7926 4.48196 3.7926 7.71588C3.7926 10.9498 6.57174 13.5714 9.99997 13.5714Z" fill="white"/>
<path d="M14.7067 6.25195H5.29328C4.46448 6.25195 3.7926 6.93857 3.7926 7.78554V17.4053C3.7926 18.2523 4.46448 18.9389 5.29328 18.9389H14.7067C15.5355 18.9389 16.2073 18.2523 16.2073 17.4053V7.78554C16.2073 6.93857 15.5355 6.25195 14.7067 6.25195Z" fill="white"/>
<path d="M16.4802 7.70898H3.51978V8.21089H16.4802V7.70898Z" fill="#343434"/>
<path d="M7.13503 5.13677C7.28572 5.13677 7.40788 5.01193 7.40788 4.85794C7.40788 4.70394 7.28572 4.5791 7.13503 4.5791C6.98434 4.5791 6.86218 4.70394 6.86218 4.85794C6.86218 5.01193 6.98434 5.13677 7.13503 5.13677Z" fill="#343434"/>
<path d="M7.13512 5.3877C7.03258 5.3877 6.93235 5.35662 6.8471 5.29841C6.76185 5.2402 6.6954 5.15746 6.65616 5.06065C6.61692 4.96385 6.60666 4.85732 6.62666 4.75455C6.64666 4.65179 6.69604 4.55739 6.76854 4.4833C6.84104 4.4092 6.93342 4.35875 7.03398 4.3383C7.13454 4.31786 7.23878 4.32835 7.33351 4.36845C7.42824 4.40855 7.5092 4.47646 7.56617 4.56358C7.62313 4.6507 7.65353 4.75313 7.65353 4.85791C7.65335 4.99836 7.59868 5.13301 7.50149 5.23232C7.40431 5.33164 7.27255 5.38751 7.13512 5.3877ZM7.13512 4.83003C7.12972 4.83003 7.12445 4.83166 7.11996 4.83473C7.11547 4.83779 7.11197 4.84215 7.10991 4.84724C7.10784 4.85234 7.1073 4.85794 7.10836 4.86335C7.10941 4.86876 7.11201 4.87373 7.11582 4.87763C7.11964 4.88153 7.1245 4.88418 7.12979 4.88526C7.13509 4.88633 7.14057 4.88578 7.14556 4.88367C7.15054 4.88156 7.15481 4.87799 7.1578 4.8734C7.1608 4.86882 7.1624 4.86343 7.1624 4.85791C7.1624 4.85052 7.15953 4.84342 7.15441 4.83819C7.14929 4.83297 7.14235 4.83003 7.13512 4.83003Z" fill="#343434"/>
<path d="M12.8649 5.13677C13.0156 5.13677 13.1377 5.01193 13.1377 4.85794C13.1377 4.70394 13.0156 4.5791 12.8649 4.5791C12.7142 4.5791 12.592 4.70394 12.592 4.85794C12.592 5.01193 12.7142 5.13677 12.8649 5.13677Z" fill="#343434"/>
<path d="M12.865 5.3877C12.7624 5.3877 12.6622 5.35662 12.577 5.29841C12.4917 5.2402 12.4253 5.15746 12.386 5.06065C12.3468 4.96385 12.3365 4.85732 12.3565 4.75455C12.3765 4.65179 12.4259 4.55739 12.4984 4.4833C12.5709 4.4092 12.6633 4.35875 12.7638 4.3383C12.8644 4.31786 12.9686 4.32835 13.0634 4.36845C13.1581 4.40855 13.2391 4.47646 13.296 4.56358C13.353 4.6507 13.3834 4.75313 13.3834 4.85791C13.3832 4.99836 13.3285 5.13301 13.2314 5.23232C13.1342 5.33164 13.0024 5.38751 12.865 5.3877ZM12.865 4.83003C12.8596 4.83003 12.8543 4.83166 12.8498 4.83473C12.8453 4.83779 12.8418 4.84215 12.8398 4.84724C12.8377 4.85234 12.8372 4.85794 12.8382 4.86335C12.8393 4.86876 12.8419 4.87373 12.8457 4.87763C12.8495 4.88153 12.8544 4.88418 12.8597 4.88526C12.8649 4.88633 12.8704 4.88578 12.8754 4.88367C12.8804 4.88156 12.8847 4.87799 12.8877 4.8734C12.8907 4.86882 12.8923 4.86343 12.8923 4.85791C12.8923 4.85052 12.8894 4.84342 12.8843 4.83819C12.8792 4.83297 12.8722 4.83003 12.865 4.83003Z" fill="#343434"/>
</svg>
