<svg width="19" height="22" viewBox="0 0 19 22" fill="none" xmlns="http://www.w3.org/2000/svg">
<path d="M15.885 11.6263C15.874 9.82297 16.714 8.46388 18.41 7.46178C17.4615 6.13966 16.0265 5.41256 14.1345 5.27243C12.343 5.13493 10.3835 6.28774 9.666 6.28774C8.9075 6.28774 7.173 5.32002 5.8085 5.32002C2.9925 5.3623 0 7.50406 0 11.8616C0 13.1493 0.241998 14.4793 0.725998 15.849C1.3725 17.6522 3.705 22.0709 6.1375 21.9991C7.4095 21.97 8.3095 21.1215 9.965 21.1215C11.571 21.1215 12.403 21.9991 13.822 21.9991C16.2765 21.9647 18.3855 17.9482 19 16.1398C15.7085 14.63 15.885 11.7189 15.885 11.6263ZM13.028 3.56163C14.4065 1.96987 14.2815 0.520877 14.2405 0C13.0225 0.0687265 11.6145 0.806451 10.813 1.71338C9.9295 2.68646 9.4105 3.88953 9.5215 5.24598C10.8375 5.34379 12.039 4.68541 13.028 3.56163Z" fill="white"/>
</svg>
