<svg width="16" height="16" viewBox="0 0 16 16" fill="none" xmlns="http://www.w3.org/2000/svg">
<path d="M14.1561 1.32804C14.0276 1.33325 13.9044 1.38707 13.8124 1.47908L1.47903 13.8124C1.34882 13.9392 1.29674 14.1249 1.34188 14.3003C1.38701 14.4756 1.52417 14.6128 1.69951 14.6579C1.87486 14.703 2.06063 14.651 2.18736 14.5208L7.74465 8.96172C7.82625 8.98429 7.91132 8.99992 7.99986 8.99992C8.55368 8.99992 8.99986 8.55374 8.99986 7.99992C8.99986 7.91138 8.98424 7.82631 8.96167 7.74471L10.4408 6.26554C11.262 7.42353 11.1648 9.05374 10.144 10.0954C9.94951 10.2933 9.95299 10.6093 10.1492 10.8037C10.2464 10.8992 10.3731 10.9461 10.4999 10.9461C10.6301 10.9461 10.7603 10.8975 10.8558 10.7968C12.262 9.3645 12.3592 7.10235 11.1561 5.55026L12.5207 4.18568C14.486 6.33151 14.4825 9.68394 12.5085 11.828C12.321 12.0312 12.3349 12.3471 12.5381 12.5346C12.6335 12.6232 12.7551 12.6666 12.8766 12.6666C13.012 12.6666 13.1457 12.6128 13.2447 12.5051C15.571 9.97735 15.571 6.01901 13.2447 3.49471C13.2394 3.4895 13.2325 3.48429 13.2273 3.47908L14.5207 2.18742C14.6683 2.04332 14.7117 1.82283 14.6318 1.6336C14.5519 1.44436 14.3627 1.32283 14.1561 1.32804ZM3.10403 3.33325C2.97556 3.33846 2.85056 3.39228 2.75681 3.49297C0.65264 5.77596 0.449515 9.22214 2.1457 11.7326L2.86618 11.0121C1.53979 8.89575 1.74986 6.06242 3.48945 4.17353C3.67695 3.9704 3.66653 3.65269 3.4634 3.46693C3.36097 3.37144 3.23076 3.32804 3.10403 3.33325ZM5.49465 5.05374C5.36792 5.05547 5.23945 5.10408 5.14396 5.20304C3.98945 6.38013 3.71688 8.11624 4.32104 9.56068L5.10924 8.77075C4.84708 7.77943 5.09708 6.68047 5.85577 5.90443C6.05021 5.70651 6.04674 5.39054 5.85056 5.1961C5.7516 5.10061 5.62313 5.052 5.49465 5.05374Z" fill="#C4C4C4"/>
</svg>
